<svg xmlns="http://www.w3.org/2000/svg" xmlns:svg="http://www.w3.org/2000/svg" id="svg2" width="190" height="95" version="1.1"><defs id="defs4"><marker style="overflow:visible" id="Arrow1Send" orient="auto" refX="0" refY="0"><path style="fill-rule:evenodd;stroke:#000;stroke-width:1pt" id="path3824" d="M 0,0 5,-5 -12.5,0 5,5 0,0 z" transform="matrix(-0.2,0,0,-0.2,-1.2,0)"/></marker><marker style="overflow:visible" id="Arrow1Mend" orient="auto" refX="0" refY="0"><path style="fill-rule:evenodd;stroke:#000;stroke-width:1pt" id="path3818" d="M 0,0 5,-5 -12.5,0 5,5 0,0 z" transform="matrix(-0.4,0,0,-0.4,-4,0)"/></marker><marker style="overflow:visible" id="Arrow1Mends" orient="auto" refX="0" refY="0"><path style="fill:#fff;fill-rule:evenodd;stroke:#fff;stroke-width:1pt" id="path4810" d="M 0,0 5,-5 -12.5,0 5,5 0,0 z" transform="matrix(-0.4,0,0,-0.4,-4,0)"/></marker><marker style="overflow:visible" id="Arrow1Mends-7" orient="auto" refX="0" refY="0"><path style="fill:#fff;fill-rule:evenodd;stroke:#fff;stroke-width:1pt" id="path4810-6" d="M 0,0 5,-5 -12.5,0 5,5 0,0 z" transform="matrix(-0.4,0,0,-0.4,-4,0)"/></marker></defs><metadata id="metadata7"/><g id="layer1" transform="translate(0,-957.36218)"><rect id="rect2989" width="40" height="80" x="1007.362" y="-140" transform="matrix(0,1,-1,0,0,0)" style="color:#000;fill:none;stroke:#fff;stroke-width:2;stroke-miterlimit:4;stroke-opacity:1;stroke-dasharray:none;marker:none;visibility:visible;display:inline;overflow:visible;enable-background:accumulate"/><text id="text2995" x="99.202" y="1041.242" xml:space="preserve" style="font-size:40px;font-style:normal;font-variant:normal;font-weight:700;font-stretch:normal;text-align:center;line-height:125%;letter-spacing:0;word-spacing:0;text-anchor:middle;fill:#fff;fill-opacity:1;stroke:none;font-family:CMU Sans Serif;-inkscape-font-specification:CMU Sans Serif Bold"><tspan id="tspan2997" x="99.202" y="1041.242">R</tspan></text><text id="text2999" x="11.567" y="1041.242" xml:space="preserve" style="font-size:40px;font-style:normal;font-variant:normal;font-weight:700;font-stretch:normal;text-align:end;line-height:125%;letter-spacing:0;word-spacing:0;text-anchor:end;fill:#fff;fill-opacity:1;stroke:none;font-family:CMU Sans Serif;-inkscape-font-specification:CMU Sans Serif Bold"><tspan id="tspan3001" x="11.567" y="1041.242">I</tspan></text><text style="font-size:40px;font-style:normal;font-variant:normal;font-weight:700;font-stretch:normal;line-height:125%;letter-spacing:0;word-spacing:0;fill:#fff;fill-opacity:1;stroke:none;font-family:CMU Sans Serif;-inkscape-font-specification:CMU Sans Serif Bold" id="text3778" x="84.76" y="985.802" xml:space="preserve"><tspan id="tspan3780" x="84.76" y="985.802">U</tspan></text><path id="path3782" d="m 14.999996,1027.3622 42,0" style="color:#000;fill:none;stroke:#fff;stroke-width:2;stroke-linecap:butt;stroke-linejoin:miter;stroke-miterlimit:4;stroke-opacity:1;stroke-dasharray:none;stroke-dashoffset:0;marker:none;marker-end:url(#Arrow1Mends);visibility:visible;display:inline;overflow:visible;enable-background:accumulate"/><path id="path3784" d="m 140,1027.3622 50,0" style="color:#000;fill:none;stroke:#fff;stroke-width:2;stroke-linecap:butt;stroke-linejoin:miter;stroke-miterlimit:4;stroke-opacity:1;stroke-dasharray:none;stroke-dashoffset:0;marker:none;visibility:visible;display:inline;overflow:visible;enable-background:accumulate"/><path id="path3786" d="m 44.999996,1002.3622 c 28.470973,-12.97938 59.431254,-17.54593 105.000004,0" style="color:#000;fill:none;stroke:#fff;stroke-width:2;stroke-linecap:butt;stroke-linejoin:miter;stroke-miterlimit:4;stroke-opacity:1;stroke-dasharray:none;stroke-dashoffset:0;marker:none;marker-end:url(#Arrow1Mends);visibility:visible;display:inline;overflow:visible;enable-background:accumulate"/></g></svg>